<svg width="277" height="196" viewBox="0 0 277 196" fill="none" xmlns="http://www.w3.org/2000/svg">
<path fill-rule="evenodd" clip-rule="evenodd" d="M133.88 0.0674663C121.115 0.981466 106.971 6.56747 96.6377 14.7735C81.7337 26.6095 71.9347 46.2765 71.8947 64.4375L71.8797 71.0585L66.8017 71.7325C60.0587 72.6265 50.1957 76.2795 43.2907 80.4395C36.3657 84.6105 26.2767 95.1315 21.9517 102.69C19.6507 106.712 17.5527 108.952 14.7477 110.383C9.74767 112.934 3.18467 118.826 1.31467 122.441C-2.97533 130.737 3.48668 137.507 17.0117 138.885C28.3437 140.041 34.6727 136.989 40.8247 127.402C44.8417 121.141 47.4047 119.863 46.5527 124.546C46.2257 126.344 45.6627 128.829 45.3017 130.066C44.4267 133.071 46.4517 133.023 55.8797 129.816C64.6827 126.822 64.8797 126.808 64.8797 129.186C64.8797 130.551 63.6567 131.399 60.3537 132.323C53.3967 134.271 53.6957 135.588 61.0027 135.176C66.8327 134.847 67.3797 134.987 67.3797 136.816C67.3797 138.489 66.3997 138.969 61.3797 139.755L55.3797 140.695L60.8697 141.775C64.7327 142.535 66.4587 143.368 66.6927 144.586C66.9817 146.084 66.1107 146.327 60.2027 146.395L53.3797 146.474L57.6797 147.995C64.3757 150.364 62.4797 151.87 53.2947 151.478C47.7427 151.241 42.9907 151.738 37.3797 153.142C32.9797 154.243 27.0177 155.449 24.1297 155.824C21.2427 156.198 18.8797 156.736 18.8797 157.02C18.8797 157.304 20.3377 160.299 22.1197 163.676C26.8867 172.709 38.5507 183.974 47.8797 188.553C58.7947 193.911 67.1817 195.613 79.8797 195.046C87.8617 194.69 92.0627 193.955 97.3967 191.984L104.415 189.391L110.288 192.353C117.531 196.007 126.109 196.379 133.738 193.372C138.622 191.447 138.719 191.447 143.785 193.372C151.577 196.333 159.255 195.968 166.618 192.289L172.676 189.262L180.528 191.921C196.39 197.292 214.028 196.08 229.134 188.581C238.272 184.044 250.967 171.656 255.653 162.702L258.852 156.588L253.256 155.93C250.178 155.569 244.05 154.337 239.638 153.193C233.92 151.711 229.427 151.215 223.998 151.465C217.941 151.744 216.38 151.527 216.38 150.405C216.38 149.629 217.955 148.439 219.88 147.76L223.38 146.525L216.88 146.171C211.971 145.903 210.38 145.454 210.38 144.338C210.38 143.343 212.181 142.505 215.88 141.777L221.38 140.695L215.38 139.755C210.36 138.969 209.38 138.489 209.38 136.816C209.38 135.002 209.966 134.839 215.685 135.059C222.815 135.334 223.113 134.201 216.406 132.323C212.14 131.129 210.635 129.203 212.883 127.814C213.435 127.473 217.697 128.435 222.353 129.951C227.01 131.468 231.131 132.398 231.51 132.019C231.89 131.639 231.644 129.471 230.963 127.199C229.189 121.276 230.926 120.173 234.518 124.943C243.627 137.043 249.265 140.096 260.21 138.858C267.619 138.02 270.681 136.856 274.13 133.565C276.312 131.484 276.88 130.037 276.88 126.564C276.88 122.647 276.371 121.691 272.047 117.479C269.389 114.889 265.108 111.656 262.535 110.294C258.872 108.354 257.045 106.41 254.118 101.34C245.344 86.1415 228.045 74.3895 210.63 71.7965C206.081 71.1195 205.88 70.9515 205.88 67.8335C205.88 61.3485 202.766 46.9385 199.917 40.2445C192.419 22.6235 174.875 7.18547 156.773 2.28047C151.758 0.921468 139.074 -0.304534 133.88 0.0674663ZM129.335 24.9375C131.157 25.6365 133.88 30.3715 133.88 32.8395C133.88 34.2215 133.49 34.1555 131.245 32.3895C127.855 29.7225 122.509 29.6875 119.88 32.3165L117.88 34.3165V31.6305C117.88 26.3535 123.883 22.8455 129.335 24.9375ZM157.425 26.7715C158.781 28.1275 159.88 30.3975 159.88 31.8435V34.4615L157.245 32.3895C153.873 29.7365 148.895 29.7215 146.069 32.3555L143.88 34.3945V31.4285C143.88 25.1065 152.721 22.0665 157.425 26.7715ZM161.732 48.6555C165.775 50.0475 169.294 51.3975 169.552 51.6545C170.447 52.5495 165.645 60.8405 162.024 64.6525C152.116 75.0845 135.47 77.5725 122.569 70.5505C115.706 66.8155 106.883 55.3565 108.209 51.9015C108.632 50.7995 119.291 47.2015 125.88 45.9355C127.255 45.6715 134.23 45.6065 141.38 45.7895C152.106 46.0655 155.666 46.5665 161.732 48.6555ZM72.5437 95.8895C77.4707 100.816 73.6087 109.316 66.4437 109.316C61.1337 109.316 57.0817 103.544 58.9467 98.6395C61.1607 92.8155 68.0727 91.4185 72.5437 95.8895ZM98.4247 95.7715C105.655 103 95.5837 113.591 87.5147 107.243C85.5367 105.688 84.8797 104.27 84.8797 101.558C84.8797 94.0195 93.1437 90.4895 98.4247 95.7715ZM194.88 95.3165C196.213 96.6495 196.88 98.6495 196.88 101.316C196.88 106.46 194.186 109.316 189.335 109.316C182.147 109.316 178.48 101.637 182.953 95.9515C185.597 92.5895 191.822 92.2585 194.88 95.3165ZM221.425 95.7715C226.532 100.877 222.863 109.316 215.536 109.316C210.352 109.316 207.425 106.43 207.425 101.316C207.425 98.1065 207.982 96.6525 209.764 95.2095C213.109 92.5005 218.41 92.7555 221.425 95.7715ZM100.507 120.796C104.714 125.597 106.24 131.579 105.678 141.062C104.967 153.039 100.126 160.316 92.8687 160.316C88.2087 160.316 85.0047 157.858 82.1107 152.065C76.8817 141.595 78.5977 127.363 85.9787 119.982C89.5137 116.446 90.2727 116.116 93.6407 116.643C96.2397 117.05 98.3327 118.316 100.507 120.796ZM178.4 125.066C180.865 143.3 190.819 154.186 208.282 157.747C215.886 159.297 216.727 161.333 210.974 164.268C205.706 166.955 196.5 169.322 191.42 169.294C186.637 169.268 180.254 166.53 177.179 163.185C170.079 155.462 168.214 139.966 172.833 127.066C174.162 123.353 175.814 120.316 176.504 120.316C177.243 120.316 178.021 122.266 178.4 125.066ZM139.915 146.066C141.112 151.918 146.043 163.313 149.801 168.909L151.877 172.002L148.917 177.925C147.289 181.183 144.404 185.354 142.505 187.194C139.061 190.533 139.048 190.536 136.563 188.678C133.521 186.403 128.312 178.916 126.871 174.746C125.929 172.02 126.206 171.017 129.344 165.806C133.673 158.617 136.944 150.228 137.627 144.566C137.909 142.228 138.275 140.316 138.439 140.316C138.604 140.316 139.268 142.904 139.915 146.066Z" fill="#FF8484"/>
<path fill-rule="evenodd" clip-rule="evenodd" d="M123.879 1.8711C120.304 2.6391 113.554 5.14109 108.879 7.43209C102.017 10.7941 98.7405 13.2551 91.8715 20.2061C79.3355 32.8921 73.5745 45.4281 72.2275 62.9491C71.6095 70.9851 71.4675 71.3751 68.9805 71.8741C60.9045 73.4911 53.6495 75.8101 48.0325 78.5681C39.6775 82.6721 28.4085 93.2821 23.5125 101.653C20.4025 106.971 18.6025 108.846 14.2465 111.304C1.32747 118.595 -2.74152 126.927 3.45747 133.397C6.69247 136.774 11.9355 138.316 20.1805 138.316C30.5655 138.316 34.7565 135.857 41.0245 126.09C42.9125 123.147 44.8155 121.316 45.9835 121.316C48.1585 121.316 48.2865 122.31 46.8015 127.66C46.2145 129.774 45.8795 131.646 46.0565 131.82C46.2345 131.993 49.7545 131.057 53.8795 129.739C63.5475 126.65 66.1255 126.594 65.6995 129.481C65.4715 131.02 64.2235 132.001 61.3795 132.876L57.3795 134.106L63.1295 134.211C68.1425 134.303 68.8795 134.568 68.8795 136.281C68.8795 138.682 66.1175 140.278 61.6955 140.431L58.3795 140.546L62.1805 141.282C66.6555 142.148 68.3755 143.581 67.5435 145.749C67.1305 146.827 65.6055 147.325 62.6605 147.346C59.2665 147.371 58.7425 147.588 60.1295 148.396C61.0925 148.957 61.8795 150.134 61.8795 151.012C61.8795 152.385 60.8575 152.523 54.6005 151.994C48.7415 151.499 45.3785 151.86 37.3535 153.847C31.8705 155.205 25.6955 156.316 23.6315 156.316C21.2915 156.316 19.8835 156.786 19.8885 157.566C19.9115 160.518 26.7185 170.349 33.2825 176.907C50.1245 193.735 73.8525 199.1 97.0345 191.322L105.282 188.555L108.831 190.861C116.221 195.664 124.852 196.311 133.795 192.733L137.919 191.083L133.827 186.644C131.577 184.203 128.658 179.879 127.34 177.035C125.064 172.122 125.028 171.739 126.611 169.34C133.799 158.45 136.558 150.189 138.469 133.834C140.873 113.258 145.45 102.102 156.196 90.6261C166.261 79.8771 181.408 72.8301 197.034 71.6251L205.138 71.0001L204.627 62.4081C202.219 21.9731 163.932 -6.7309 123.879 1.8711ZM131.629 26.9531C133.001 28.4611 133.867 30.6741 133.847 32.6221C133.82 35.3371 133.633 35.5781 132.597 34.2291C129.378 30.0361 124.436 29.3041 120.461 32.4301C117.155 35.0301 116.298 34.3501 117.502 30.0831C118.137 27.8321 119.502 26.2741 121.891 25.0751C125.948 23.0371 128.52 23.5331 131.629 26.9531ZM157.629 26.6051C159.177 28.0221 159.869 29.7811 159.847 32.2401C159.82 35.2561 159.624 35.5671 158.597 34.2291C155.426 30.0991 150.437 29.3031 146.606 32.3161C143.579 34.6971 142.879 34.8001 142.879 32.8631C142.879 29.8041 145.453 25.9771 148.355 24.7201C151.873 23.1971 154.485 23.7281 157.629 26.6051ZM159.064 47.4741C169.51 50.2281 170.619 51.1141 168.879 55.3161C166.13 61.9531 160.26 68.0031 153.193 71.4821C147.21 74.4281 145.487 74.8141 138.4 74.8011C128.748 74.7831 122.624 72.3811 116.012 66.0181C111.613 61.7861 106.324 52.4081 107.66 51.2091C109.161 49.8611 121.953 46.1791 128.035 45.3441C136.746 44.1481 149.862 45.0481 159.064 47.4741ZM71.0295 93.3961C76.5565 96.3541 76.4265 105.947 70.8205 108.846C66.7695 110.941 64.4655 110.68 60.9565 107.727C58.5085 105.668 57.8795 104.356 57.8795 101.316C57.8795 94.7841 65.2875 90.3231 71.0295 93.3961ZM98.1675 94.3281C104.956 99.6681 100.673 110.316 91.7375 110.316C88.5355 110.316 83.8795 104.983 83.8795 101.316C83.8795 97.1321 88.5825 92.3161 92.6675 92.3161C94.2855 92.3161 96.7605 93.2211 98.1675 94.3281ZM260.042 115.566C261.117 119.004 262.262 125.529 262.586 130.066C262.911 134.603 263.574 138.316 264.06 138.316C266.297 138.316 272.12 135.159 274.38 132.721C279.671 127.012 276.189 119.772 264.397 111.956C258.362 107.956 257.807 108.416 260.042 115.566ZM98.8735 118.252C100.244 119.226 102.494 122.214 103.873 124.893C106.005 129.037 106.378 131.108 106.372 138.789C106.366 146.162 105.962 148.572 104.166 151.94C97.6925 164.081 87.4925 164.206 81.5185 152.219C76.5755 142.299 78.3945 126.032 85.1705 119.568C89.9755 114.984 93.7605 114.621 98.8735 118.252Z" fill="#FF4A4D"/>
<path fill-rule="evenodd" clip-rule="evenodd" d="M125.774 1.75255C96.3519 7.91855 74.6459 32.5776 73.1239 61.5666L72.6129 71.3166H79.0159C100.023 71.3166 122.248 85.7136 131.739 105.471C133.945 110.061 136.326 116.667 137.032 120.151L138.315 126.485L140.089 119.151C142.923 107.435 148.267 97.9455 156.888 89.3245C168.214 77.9986 180.406 72.5385 198.251 70.8005L205.122 70.1316L204.418 62.0606C202.914 44.8216 197.277 32.7425 184.888 20.2105C175.808 11.0265 167.141 5.81855 155.88 2.77955C147.804 0.600553 133.586 0.115553 125.774 1.75255ZM129.821 24.7866C132.924 26.3906 134.964 30.7626 133.95 33.6316C133.34 35.3576 133.22 35.3495 131.52 33.4715C130.537 32.3855 128.637 31.2216 127.298 30.8856C124.731 30.2406 118.88 32.6436 118.88 34.3426C118.88 34.8786 118.43 35.3166 117.88 35.3166C115.608 35.3166 116.921 29.1215 119.803 26.2395C123.063 22.9795 125.612 22.6096 129.821 24.7866ZM155.789 24.7696C158.911 26.3836 161.455 31.3756 160.468 33.9486C159.89 35.4556 159.613 35.4196 157.604 33.5816C153.415 29.7486 147.967 29.9216 145.58 33.9626C144.205 36.2916 142.88 35.4465 142.88 32.2395C142.88 30.1725 143.839 28.2035 145.803 26.2395C149.057 22.9865 151.613 22.6096 155.789 24.7696ZM150.815 45.3755C157.338 46.4345 168.757 49.8755 170.131 51.1965C171.506 52.5185 165.866 62.0555 161.04 66.5705C154.232 72.9386 146.564 75.6346 136.809 75.0906C127.638 74.5786 121.321 71.8106 115.076 65.5656C110.708 61.1976 106.285 53.0886 107.339 51.3826C108.147 50.0756 120.239 46.1986 126.261 45.3166C133.973 44.1866 143.627 44.2095 150.815 45.3755ZM12.3799 112.699C5.09088 117.482 0.879883 122.644 0.879883 126.796C0.879883 131.149 4.13688 134.972 9.37988 136.774C13.3699 138.146 13.3809 138.143 13.6369 135.483C14.4649 126.878 16.1889 116.693 17.3979 113.267C18.1639 111.094 18.4739 109.34 18.0859 109.368C17.6979 109.395 15.1299 110.895 12.3799 112.699ZM259.287 110.909C261.283 116.036 262.971 124.831 263.16 131.088L263.37 138.037L266.248 137.212C273.291 135.192 277.462 130.241 276.357 125.212C275.538 121.485 269.076 114.875 262.862 111.409C258.924 109.212 258.61 109.168 259.287 110.909Z" fill="#D40C0C"/>
</svg>
