<svg width="210" height="41" viewBox="0 0 210 41" fill="none" xmlns="http://www.w3.org/2000/svg">
<path fill-rule="evenodd" clip-rule="evenodd" d="M0.00600052 15.2502C0.00900052 23.6382 0.475999 32.1742 1.044 34.2212C2.686 40.1332 4.812 41.0002 17.667 41.0002C28.084 41.0002 29.09 40.8272 31.694 38.5892L34.5 36.1772L34.813 18.0892L35.126 0.000202815H27.063H19V14.5002C19 26.7222 18.764 29.0002 17.5 29.0002C16.236 29.0002 16 26.7222 16 14.5002V0.000202815H8H0L0.00600052 15.2502ZM49 20.5002V41.0002H56.5C60.625 41.0002 64 40.5902 64 40.0892C64 39.5882 63.106 36.3262 62.013 32.8392C60.92 29.3532 60.02 26.3882 60.013 26.2502C60.006 26.1122 60.638 26.0002 61.418 26.0002C62.276 26.0002 63.694 28.5752 65.003 32.5102C66.211 36.1402 67.988 39.4592 69.019 40.0102C70.036 40.5552 73.598 41.0002 76.934 41.0002H83V20.5002V0.000202815H75.5C71.375 0.000202815 68 0.380203 68 0.843203C68 1.3072 68.9 4.3032 70 7.5002C72.365 14.3742 72.42 15.0002 70.658 15.0002C69.885 15.0002 68.538 12.4282 67.479 8.9312C65.185 1.3542 63.335 0.000202815 55.277 0.000202815H49V20.5002ZM97 20.5002V41.0002H105H113V20.5002V0.000202815H105H97V20.5002ZM131.36 1.4602C127.579 4.1092 126.82 7.9172 127.171 22.4882C127.498 36.0742 127.521 36.1962 130.306 38.5892C132.919 40.8342 133.901 41.0002 144.601 41.0002C155.362 41.0002 156.242 40.8492 158.465 38.6262C161.52 35.5712 162.384 29.7422 161.784 16.2442C161.323 5.8762 161.251 5.6142 158.141 2.8352C155.074 0.094202 154.612 0.000202815 144.207 0.000202815C136.39 0.000202815 132.875 0.400202 131.36 1.4602ZM176 20.5002V41.0002H183.5C187.625 41.0002 190.997 40.8882 190.992 40.7502C190.988 40.6122 190.092 37.5752 189 34.0002C186.643 26.2802 186.619 26.0002 188.317 26.0002C189.047 26.0002 190.434 28.5662 191.425 31.7502C194.06 40.2122 195.06 41.0002 203.155 41.0002H210V20.5002V0.000202815H202.5C193.917 0.000202815 194.02 -0.159798 197.003 8.5082C198.104 11.7092 198.798 14.5352 198.546 14.7882C197.203 16.1302 195.284 13.6312 194.094 8.9912C192.146 1.3882 190.356 0.000202815 182.5 0.000202815H176V20.5002ZM145.786 20.6692C145.59 27.3022 145.108 30.4682 144.25 30.7522C143.305 31.0652 143 28.7042 143 21.0832C143 12.6812 143.256 11.0002 144.536 11.0002C145.832 11.0002 146.028 12.5152 145.786 20.6692Z" fill="#FF4A4D"/>
</svg>
