<svg width="20" height="20" viewBox="0 0 20 20" fill="none" xmlns="http://www.w3.org/2000/svg">
<path d="M10.136 0.250051C4.65255 0.175989 0.175989 4.65255 0.250051 10.136C0.323176 15.3949 4.60521 19.6769 9.86411 19.7501C15.3485 19.8251 19.8241 15.3485 19.7491 9.86505C19.6769 4.60521 15.3949 0.323176 10.136 0.250051ZM9.96349 7.38021C9.97333 7.32396 9.98411 7.26771 9.99677 7.21193C10.1152 6.6645 10.379 6.15911 10.7604 5.74896C11.3646 5.10536 12.221 4.75005 13.1721 4.75005C13.5722 4.74841 13.9696 4.81596 14.3468 4.94974C14.8156 5.11665 15.2377 5.39306 15.5782 5.75599C16.079 6.2973 16.3771 6.99521 16.4219 7.7313C16.4349 7.90919 16.4349 8.08779 16.4219 8.26568C16.3858 8.76983 16.2554 9.26274 16.0375 9.7188C16.0138 9.76849 15.989 9.81771 15.963 9.86646C15.911 9.96349 15.8552 10.0586 15.7952 10.1505C15.6758 10.3339 15.5404 10.5065 15.3907 10.6661C14.7757 11.3224 13.9882 11.6847 13.173 11.6847C12.8674 11.6845 12.5638 11.6342 12.2744 11.5357C12.1772 11.5027 12.0818 11.4646 11.9885 11.4218C11.5978 11.2395 11.2464 10.9829 10.954 10.6661C10.3452 10.0058 9.9812 9.15674 9.92271 8.26052C9.91427 8.13927 9.91146 8.01927 9.91427 7.90052C9.9179 7.72642 9.93435 7.55283 9.96349 7.38115V7.38021ZM2.9449 8.52115C2.96771 8.18668 3.05026 7.859 3.18865 7.55365C3.22768 7.4686 3.27118 7.38567 3.31896 7.30521C3.41452 7.14392 3.52754 6.99364 3.65599 6.85708C3.84627 6.65409 4.06783 6.48286 4.31224 6.3499C4.43431 6.28318 4.56142 6.22613 4.6924 6.17927C5.19429 6.00373 5.73388 5.96506 6.25568 6.06724C6.80857 6.17418 7.31355 6.45308 7.69849 6.86412C8.15527 7.3572 8.41269 8.00233 8.42083 8.67443C8.42318 8.77333 8.42083 8.87271 8.4138 8.97349C8.3852 9.35942 8.29004 9.7375 8.13255 10.091C8.05714 10.2612 7.96728 10.4246 7.86396 10.5794C7.66524 10.8797 7.41517 11.1426 7.12521 11.3561C7.0549 11.4063 6.98177 11.4532 6.9063 11.5001C6.75787 11.5885 6.60081 11.6615 6.43755 11.718C6.19345 11.8033 5.93676 11.8471 5.67818 11.8474C5.63458 11.8474 5.59099 11.8474 5.54786 11.8436C5.46175 11.8389 5.37598 11.8292 5.29099 11.8146C5.20642 11.7999 5.12271 11.7806 5.04021 11.7569C4.91628 11.7211 4.7953 11.6758 4.67833 11.6215C4.63896 11.6032 4.60052 11.584 4.56208 11.5638C3.71833 11.119 3.08224 10.1969 2.95755 9.12068C2.95193 9.07146 2.94724 9.02224 2.94396 8.97255C2.93338 8.82226 2.93369 8.6714 2.9449 8.52115ZM5.4724 16.893C4.22433 16.0704 3.22128 14.9263 2.56896 13.5813C2.54765 13.5383 2.54365 13.4888 2.55778 13.4429C2.57191 13.397 2.60309 13.3583 2.6449 13.3347C3.51583 12.8449 4.62818 12.5782 5.67911 12.5782C6.47599 12.5782 7.11818 12.6719 7.68021 12.8538C7.74393 12.8748 7.80085 12.9125 7.84505 12.9629C7.88925 13.0134 7.91911 13.0748 7.93151 13.1407C7.94391 13.2066 7.9384 13.2747 7.91555 13.3377C7.8927 13.4008 7.85336 13.4566 7.80161 13.4993C6.70708 14.3899 6.00161 15.4933 5.67021 16.8157C5.66525 16.8359 5.6555 16.8546 5.64178 16.8703C5.62806 16.886 5.61077 16.8981 5.59138 16.9057C5.57198 16.9133 5.55105 16.9161 5.53034 16.9139C5.50963 16.9117 5.48976 16.9045 5.4724 16.893ZM10.0001 18.2501C8.94471 18.2511 7.89905 18.0487 6.92036 17.6538C6.88037 17.6373 6.84732 17.6074 6.82681 17.5693C6.80631 17.5312 6.79961 17.4872 6.80786 17.4447C6.82661 17.3486 6.84724 17.261 6.86552 17.1879C7.19927 15.8552 8.02615 14.7504 9.25615 13.9919C10.3479 13.3193 11.7405 12.949 13.1711 12.949C14.6318 12.949 15.9836 13.3043 17.0843 13.976C17.1123 13.9935 17.1324 14.0213 17.1404 14.0534C17.1483 14.0855 17.1435 14.1194 17.1269 14.148C16.4011 15.395 15.3611 16.4299 14.1106 17.1496C12.8602 17.8694 11.4429 18.2488 10.0001 18.2501Z" fill="#21272A"/>
</svg>
