<svg width="27" height="27" viewBox="0 0 27 27" fill="none" xmlns="http://www.w3.org/2000/svg">
<path fill-rule="evenodd" clip-rule="evenodd" d="M4.21875 10.3359C4.68474 10.3359 5.0625 10.7137 5.0625 11.1797V23.625H9.28125V17.2969C9.28125 16.7374 9.50349 16.2009 9.89907 15.8053C10.2947 15.4097 10.8312 15.1875 11.3906 15.1875H15.6094C16.1688 15.1875 16.7053 15.4097 17.1009 15.8053C17.4965 16.2009 17.7188 16.7374 17.7188 17.2969V23.625H21.9375V11.1797C21.9375 10.7137 22.3153 10.3359 22.7812 10.3359C23.2472 10.3359 23.625 10.7137 23.625 11.1797V23.625C23.625 24.0726 23.4472 24.5018 23.1307 24.8182C22.8143 25.1347 22.3851 25.3125 21.9375 25.3125H16.875C16.409 25.3125 16.0312 24.9347 16.0312 24.4688V17.2969C16.0312 17.185 15.9868 17.0777 15.9077 16.9986C15.8286 16.9194 15.7213 16.875 15.6094 16.875H11.3906C11.2787 16.875 11.1714 16.9194 11.0923 16.9986C11.0132 17.0777 10.9688 17.185 10.9688 17.2969V24.4688C10.9688 24.9347 10.591 25.3125 10.125 25.3125H5.0625C4.61495 25.3125 4.18573 25.1347 3.86926 24.8182C3.55279 24.5018 3.375 24.0726 3.375 23.625V11.1797C3.375 10.7137 3.75276 10.3359 4.21875 10.3359Z" fill="#21272A"/>
<path fill-rule="evenodd" clip-rule="evenodd" d="M14.6692 2.14373L25.896 12.8905C26.2326 13.2128 26.2442 13.7469 25.922 14.0835C25.5998 14.4201 25.0657 14.4318 24.7291 14.1096L13.5169 3.37671C13.5118 3.37626 13.5062 3.37599 13.5003 3.37598C13.4942 3.37597 13.4884 3.37624 13.4831 3.3767L2.27095 14.1096C1.93433 14.4318 1.40023 14.4201 1.07799 14.0835C0.755763 13.7469 0.767428 13.2128 1.10405 12.8905L12.3315 2.14303C12.6757 1.7941 13.1447 1.68784 13.5033 1.68848C13.8604 1.68912 14.3277 1.79625 14.6692 2.14373Z" fill="#21272A"/>
<path fill-rule="evenodd" clip-rule="evenodd" d="M17.7188 3.375C17.7188 2.90901 18.0965 2.53125 18.5625 2.53125H21.0938C21.5597 2.53125 21.9375 2.90901 21.9375 3.375V9.43945C21.9375 9.90544 21.5597 10.2832 21.0938 10.2832C20.6278 10.2832 20.25 9.90544 20.25 9.43945V4.21875H19.4062V7.01367C19.4062 7.47966 19.0285 7.85742 18.5625 7.85742C18.0965 7.85742 17.7188 7.47966 17.7188 7.01367V3.375Z" fill="#21272A"/>
</svg>
