<svg width="32" height="28" viewBox="0 0 32 28" fill="none" xmlns="http://www.w3.org/2000/svg">
<path fill-rule="evenodd" clip-rule="evenodd" d="M6 10.1172C6 5.45854 10.5264 1.75 16 1.75C21.4736 1.75 26 5.45854 26 10.1172C26 12.7435 24.3771 15.9929 22.5994 18.8015C20.795 21.6521 18.717 24.2204 17.6026 25.5373C17.4187 25.7572 17.1783 25.9362 16.9007 26.0599C16.6217 26.1841 16.313 26.2489 16 26.2489C15.687 26.2489 15.3783 26.1841 15.0993 26.0599C14.8217 25.9362 14.5812 25.7572 14.3973 25.5372C13.283 24.2198 11.205 21.6506 9.40058 18.7996C7.62292 15.9908 6 12.7417 6 10.1172ZM16 3.5C11.5361 3.5 8 6.50599 8 10.1172C8 12.2505 9.37708 15.1502 11.1502 17.9518C12.8918 20.7036 14.9091 23.2003 16 24.4903C17.0908 23.2009 19.1082 20.7051 20.8498 17.9536C22.6229 15.1525 24 12.2525 24 10.1172C24 6.50599 20.4639 3.5 16 3.5Z" fill="#21272A"/>
<path fill-rule="evenodd" clip-rule="evenodd" d="M16 8.75C14.8954 8.75 14 9.5335 14 10.5C14 11.4665 14.8954 12.25 16 12.25C17.1046 12.25 18 11.4665 18 10.5C18 9.5335 17.1046 8.75 16 8.75ZM12 10.5C12 8.567 13.7909 7 16 7C18.2091 7 20 8.567 20 10.5C20 12.433 18.2091 14 16 14C13.7909 14 12 12.433 12 10.5Z" fill="#21272A"/>
</svg>
