<svg width="27" height="27" viewBox="0 0 27 27" fill="none" xmlns="http://www.w3.org/2000/svg">
<path d="M13.5001 13.5C10.7104 13.5 8.25302 10.8791 8.01572 7.65703C7.89443 6.02227 8.40068 4.50879 9.43954 3.39609C10.4626 2.29395 11.9075 1.6875 13.5001 1.6875C15.0821 1.6875 16.5218 2.29922 17.5501 3.40664C18.5942 4.52988 19.1005 6.03809 18.9792 7.65703C18.7419 10.8791 16.2845 13.5 13.5001 13.5ZM13.5001 3.375C12.3821 3.375 11.3749 3.7916 10.6735 4.5457C9.96161 5.31035 9.61357 6.37559 9.69794 7.53574C9.86669 9.85605 11.6069 11.8178 13.4948 11.8178C15.3827 11.8178 17.1229 9.85605 17.2917 7.53574C17.3761 6.39141 17.028 5.33145 16.3056 4.55625C15.6095 3.7916 14.6075 3.375 13.5001 3.375Z" fill="#21272A"/>
<path d="M22.7816 25.3131H4.21914C3.71289 25.3131 3.25938 25.1021 2.94297 24.7277C2.6002 24.3164 2.46309 23.7574 2.56328 23.1932C3.00625 20.7252 4.39844 18.6475 6.58164 17.1973C8.52227 15.9053 10.9797 15.1934 13.5004 15.1934C16.0211 15.1934 18.4785 15.9053 20.4191 17.1973C22.6023 18.6527 23.9945 20.7252 24.4375 23.1932C24.5377 23.7574 24.4006 24.3164 24.0578 24.7277C23.7414 25.1021 23.2879 25.3131 22.7816 25.3131ZM4.22969 23.6256H22.7711C22.7816 23.5992 22.7869 23.557 22.7764 23.4885C21.959 18.948 17.3922 16.8756 13.5004 16.8756C9.60859 16.8756 5.0418 18.948 4.22442 23.4885C4.21387 23.557 4.21914 23.5992 4.22969 23.6256Z" fill="#21272A"/>
</svg>
