<svg width="18" height="26" viewBox="0 0 18 26" fill="none" xmlns="http://www.w3.org/2000/svg">
<path d="M9 0.75C4.16945 0.75 0.25 4.27789 0.25 8.625C0.25 15.625 9 25.25 9 25.25C9 25.25 17.75 15.625 17.75 8.625C17.75 4.27789 13.8305 0.75 9 0.75ZM9 13C8.30777 13 7.63108 12.7947 7.0555 12.4101C6.47993 12.0256 6.03133 11.4789 5.76642 10.8394C5.50151 10.1999 5.4322 9.49612 5.56725 8.81718C5.7023 8.13825 6.03564 7.51461 6.52513 7.02513C7.01461 6.53564 7.63825 6.2023 8.31718 6.06725C8.99612 5.9322 9.69985 6.00151 10.3394 6.26642C10.9789 6.53133 11.5256 6.97993 11.9101 7.5555C12.2947 8.13108 12.5 8.80777 12.5 9.5C12.499 10.4279 12.1299 11.3176 11.4738 11.9738C10.8176 12.6299 9.92795 12.999 9 13Z" fill="#21272A"/>
</svg>
